<svg xmlns="http://www.w3.org/2000/svg" viewBox="0 0 128 128">
  <defs>
    <linearGradient id="g" x1="0" x2="1" y1="0" y2="1">
      <stop offset="0" stop-color="#1EB53A"/>
      <stop offset="1" stop-color="#14882A"/>
    </linearGradient>
  </defs>
  <rect rx="28" ry="28" x="4" y="4" width="120" height="120" fill="url(#g)"/>
  <g fill="#ffffff">
    <path d="M88 66H52.5c1.1 8 7.1 12.5 15.6 12.5 6.2 0 10.5-2.1 14.1-5.4l7.7 8.4c-5.5 5.7-12.7 9.2-22.4 9.2-17.4 0-29.5-11.8-29.5-28.7 0-16.6 12.1-28.7 28.7-28.7 18.6 0 28.6 13.8 27 32.7ZM52.3 57.1h22.9c-.8-7.2-5.9-11.9-11.8-11.9-6.9 0-10.6 4.4-11.1 11.9Z"/>
  </g>
</svg>
