<svg xmlns="http://www.w3.org/2000/svg" viewBox="0 0 220 60">
  <defs>
    <linearGradient id="g" x1="0" x2="1" y1="0" y2="1">
      <stop offset="0" stop-color="#1EB53A"/>
      <stop offset="1" stop-color="#14882A"/>
    </linearGradient>
  </defs>
  <g>
    <rect x="6" y="6" width="48" height="48" rx="12" fill="url(#g)"/>
    <path fill="#fff" d="M44 31H22.8c.8 5.2 4.6 8.1 10.1 8.1 4 0 6.8-1.4 9.1-3.5l5 5.4c-3.6 3.7-8.2 6-14.5 6-11.3 0-19.1-7.7-19.1-18.5 0-10.7 7.8-18.5 18.5-18.5 12 0 18.4 8.9 17.4 21.6ZM22.7 25.1h14.6c-.5-4.8-3.8-7.8-7.5-7.8-4.4 0-6.8 2.9-7.1 7.8Z"/>
  </g>
  <g font-family="Azure, Arial, Helvetica, sans-serif" font-size="30" font-weight="800" letter-spacing="2">
    <text x="70" y="40" fill="#0b3d1b">e</text>
    <text x="88" y="40" fill="#111827">MAS</text>
  </g>
</svg>
